<svg xmlns="http://www.w3.org/2000/svg" xmlns:xlink="http://www.w3.org/1999/xlink" version="1.2" baseProfile="tiny" x="0px" y="0px" viewBox="0 0 128 160" overflow="scroll" xml:space="preserve"><title>Artboard 6</title><g><path d="M128,59v-2h-28v-4h3c2.8,0,5-2.2,5-5v-3h10V20c0-9.3-8-20-17-20H20C9,0,0,9,0,20v8c5.2-0.1,9.6,3.8,10,9v76   c-5.1,0-9.4,3.9-10,9l0,0v6h128v-9c0-3.3-2.7-6-6-6h-17v-4C127.7,107.6,128,61,128,59z M72.2,86c-0.7-0.8-1.1-1.8-1-2.9   s0.5-2,1.3-2.8c0.2-0.1,0.3-0.3,0.5-0.4l10.6-6.7l-1.5,2.7c-0.6,1.1-1.1,2.3-1.4,3.6c-1.5,0.6-2.8,1.7-3.7,3.2   c-1.1,1.9-1.3,4.2-0.5,6.3c-0.4,0.1-0.8,0.3-1.1,0.5L72.2,86z M95.3,86.7l-2.9,5.1c-0.7-0.6-1.5-1.2-2.3-1.6   c0.4-0.8,0.7-1.6,0.9-2.4c0.7-0.3,1.1-1,1.1-1.8V73.7l2.4,4.2C95.9,80.6,96.2,83.8,95.3,86.7z M87.2,79.9c-0.7-0.4-1.4-0.7-2.2-0.8   c0.2-0.4,0.4-0.8,0.6-1.2l2.4-4.2v6.8C87.8,80.3,87.5,80.1,87.2,79.9z M108.4,85.4c-0.1,0.2-0.2,0.4-0.4,0.5l-2.9,3.3   c-2.6-0.5-5.2,0-7.4,1.3l1.2-2.1l0.2-0.3c1.4-4.1,1-8.5-1.1-12.2L96.2,73l10.9,6.9c0.9,0.6,1.5,1.5,1.8,2.5   C109.1,83.5,108.9,84.5,108.4,85.4z M88,65v3h-3.6l-13.5,8.5c-0.4,0.2-0.7,0.5-1.1,0.8c-1.6,1.4-2.6,3.4-2.7,5.5s0.6,4.2,2,5.8   l2.7,3c-2.7,2.2-4.6,5.2-5.5,8.6c-3.9-4.5-6.3-11.4-7.7-17.6c-2-8.8-2.5-17.7-2.7-21.6h25C82.5,63.4,85,65,88,65z M124,61   c-0.1,3.5-0.6,11.2-2.2,19.2c-3.2-0.6-6.3,0.1-8.9,1.7c0-0.1,0-0.3-0.1-0.4c-0.5-2.1-1.7-3.9-3.5-5L95.8,68H92v-3   c3,0,5.5-1.6,6.9-4H124z M104,48c0,0.6-0.4,1-1,1H77c-0.6,0-1-0.4-1-1v-3h28V48z M68,29H42c-1.1,0-2,0.9-2,2c0,1.1,0.9,2,2,2H32   c-1.7,0-3-1.3-3-3s1.3-3,3-3h82v6H68c1.1,0,2-0.9,2-2S69.1,29,68,29z M4,24.5V20c0-8.8,7.2-16,16-16h81c6.7,0,13,9,13,16v3H32   c-3.9,0-7,3.1-7,7s3.1,7,7,7h82v4h-6H34c-1.1,0-2,0.9-2,2s0.9,2,2,2h6v6.3c-8.1-4.4-17.9-4.4-26,0c0-0.9,0-5.2,0-6.4   c0-4.4,3.6-8,8-8c1.1,0,2-0.9,2-2s-0.9-2-2-2c-3.1,0-6,1.2-8.1,3.2C13.3,30.7,9.4,26,4,24.5z M122,117c1.1,0,2,0.9,2,2v5H4v-1.3   v-0.3c0.3-3.1,2.9-5.4,6-5.4h13c1.1,0,2-0.9,2-2s-0.9-2-2-2h-9c0,0,0-19,0-38c0-6.6,0-13.2,0-19c7.8-5.3,18.2-5.3,26,0v27   c0,18.8,14.5,33.7,32.9,34C72.9,117,122,117,122,117z M73,113c-16.3-0.3-29-13.6-29-30V45h28v3c0,2.8,2.2,5,5,5h3v4H52v2   c0,2,0.3,50,24,50v4H73z"/><circle cx="64" cy="17" r="5"/><path d="M34.7,67.1l1.7-1.7c0.8-0.8,0.8-2,0-2.8s-2-0.8-2.8,0l-2.3,2.3c-0.7-0.3-1.5-0.5-2.3-0.7V61c0-1.1-0.9-2-2-2s-2,0.9-2,2   v3.2c-0.8,0.1-1.6,0.4-2.3,0.7l-2.3-2.3c-0.8-0.8-2-0.8-2.8,0s-0.8,2,0,2.8l1.7,1.7c-2,2-3.3,4.8-3.3,7.9c0,6.1,4.9,11,11,11   s11-4.9,11-11C38,71.9,36.7,69.1,34.7,67.1z M27,82c-3.9,0-7-3.1-7-7s3.1-7,7-7s7,3.1,7,7S30.9,82,27,82z"/></g>

</svg>